# AST/ASF file generated using VICON BodyLanguage
# -----------------------------------------------
:version 1.10
:name VICON
:units
  mass 1.0
  length 0.45
  angle deg
:documentation
   .ast/.asf automatically generated from VICON data using
   VICON BodyBuilder and BodyLanguage model FoxedUp or BRILLIANT.MOD
:root
   order TX TY TZ RX RY RZ
   axis XYZ
   position 0 0 0  
   orientation 0 0 0 
:bonedata
  begin
     id 1 
     name lhipjoint
     direction 0.570549 -0.739093 0.358072 
     length 2.41801 
     axis 0 0 0  XYZ
  end
  begin
     id 2 
     name lfemur
     direction 0.34202 -0.939693 0  
     length 7.44434  
     axis 0 0 20  XYZ
    dof rx ry rz
    limits (-160.0 20.0)
           (-70.0 70.0)
           (-60.0 70.0)
  end
  begin
     id 3 
     name ltibia
     direction 0.34202 -0.939693 0   
     length 7.60047   
     axis 0 0 20   XYZ
    dof rx
    limits (-10.0 170.0)
  end
  begin
     id 4 
     name lfoot
     direction 0.0909041 -0.249757 0.964032   
     length 2.03437   
     axis -90 7.62852e-016 20   XYZ
    dof rx rz
    limits (-45.0 90.0)
           (-70.0 20.0)
  end
  begin
     id 5 
     name ltoes
     direction 1.53547e-011 -4.2174e-011 1   
     length 1.02054   
     axis -90 7.62852e-016 20   XYZ
    dof rx
    limits (-90.0 20.0)
  end
  begin
     id 6 
     name rhipjoint
     direction -0.558096 -0.746754 0.361784   
     length 2.3932  
     axis 0 0 0  XYZ 
  end
  begin
     id 7 
     name rfemur
     direction -0.34202 -0.939693 0   
     length 7.3886   
     axis 0 0 -20   XYZ
    dof rx ry rz
    limits (-160.0 20.0)
           (-70.0 70.0)
           (-70.0 60.0)
  end
  begin
     id 8 
     name rtibia
     direction -0.34202 -0.939693 0   
     length 7.4839   
     axis 0 0 -20   XYZ
    dof rx
    limits (-10.0 170.0)
 end
 begin
     id 9 
     name rfoot
     direction -0.114619 -0.314914 0.942174   
     length 2.25127  
     axis -90 -7.62852e-016 -20   XYZ
    dof rx rz
    limits (-45.0 90.0)
           (-20.0 70.0)
  end
  begin
     id 10 
     name rtoes
     direction -1.53518e-011 -4.21881e-011 1   
     length 1.11821   
     axis -90 -7.62852e-016 -20   XYZ
    dof rx
    limits (-90.0 20.0)
  end
  begin
     id 11 
     name lowerback
     direction -0.00902269 0.996426 -0.0839821   
     length 2.25052   
     axis 0 0 0   XYZ
    dof rx ry rz
    limits (-20.0 45.0)
           (-30.0 30.0)
           (-30.0 30.0)
  end
  begin
     id 12 
     name upperback
     direction 0.0370973 0.999169 -0.0168941   
     length 2.24876   
     axis 0 0 0   XYZ
    dof rx ry rz
    limits (-20.0 45.0)
           (-30.0 30.0)
           (-30.0 30.0)
  end
  begin
     id 13 
     name thorax
     direction 0.0402726 0.998931 0.0227027   
     length 2.26408   
     axis 0 0 0   XYZ
    dof rx ry rz
    limits (-20.0 45.0)
           (-30.0 30.0)
           (-30.0 30.0)
  end
  begin
     id 14 
     name lowerneck
     direction -0.0733697 0.98508 0.155675   
     length 1.58204   
     axis 0 0 0   XYZ
    dof rx ry rz
    limits (-20.0 45.0)
           (-30.0 30.0)
           (-30.0 30.0)
  end
  begin
     id 15 
     name upperneck
     direction 0.0426554 0.993501 -0.105526   
     length 1.61222   
     axis 0 0 0   XYZ
    dof rx ry rz
    limits (-20.0 45.0)
           (-30.0 30.0)
           (-30.0 30.0)
  end
  begin
     id 16
     name head
     direction 0.020792 0.998384 -0.0528868  
     length 1.61527  
     axis 0 0 0   XYZ
    dof rx ry rz
    limits (-20.0 45.0)
           (-30.0 30.0)
           (-30.0 30.0)
  end
  begin
     id 17 
     name lclavicle
     direction 0.967109 0.155462 -0.201325  
     length 3.59357  
     axis 0 0 0   XYZ
    dof ry rz
    limits (-20.0 10.0)
           (0.0 20.0)
  end
  begin
     id 18 
     name lhumerus
     direction 1 -4.48968e-011 2.38195e-027   
     length 5.38154   
     axis 180 -30 -90   XYZ
    dof rx ry rz
    limits (-60.0 90.0)
           (-90.0 90.0)
           (-90.0 90.0)
  end
  begin
     id 19
     name lradius
     direction 1 -4.48961e-011 4.85371e-027   
     length 3.33312   
     axis 180 -30 -90   XYZ
    dof rx
    limits (-10.0 170.0)
  end
  begin
     id 20
     name lwrist
     direction 1 -4.48961e-011 4.76515e-027   
     length 1.66656   
     axis -3.27502e-015 90 90   XYZ
    dof ry
    limits (-180.0 0.0)
 end
  begin
     id 21 
     name lhand
     direction 1 -4.48951e-011 9.53074e-027   
     length 0.710789   
     axis -6.08098e-015 90 90   XYZ
    dof rx rz
    limits (-90.0 90.0)
           (-45.0 45.0)
  end
  begin
     id 22 
     name lfingers
     direction 1 -4.48953e-011 1.90613e-026   
     length 0.573057   
     axis -1.21619e-014 90 90   XYZ
    dof rx
    limits (0.0 90.0)
  end
  begin
     id 23
     name lthumb
     direction 0.707107 -6.34973e-011 0.707107   
     length 0.822798   
     axis -90 45 -9.86923e-015   XYZ
    dof rx rz
    limits (-45.0 45.0)
           (-45.0 45.0)
  end
  begin
     id 24 
     name rclavicle
     direction -0.9585 0.265289 -0.104398   
     length 3.42039  
     axis 0 0 0   XYZ 
    dof ry rz
    limits (-10.0 20.0)
           (-20.0 0.0)
  end
  begin
     id 25 
     name rhumerus
     direction -1 -4.48977e-011 2.21478e-027  
     length 5.16954   
     axis 180 30 90   XYZ
    dof rx ry rz
    limits (-90.0 60.0)
           (-90.0 90.0)
           (-90.0 90.0)
  end
  begin
     id 26 
     name rradius
     direction -1 -4.48967e-011 5.63677e-027   
     length 3.38287   
     axis 180 30 90   XYZ
    dof rx
    limits (-10.0 170.0)
  end
  begin
     id 27 
     name rwrist
     direction -1 -4.48967e-011 4.76501e-027   
     length 1.69144   
     axis -3.27502e-015 -90 -90   XYZ
    dof ry
    limits (-180.0 0.0)
  end
  begin
     id 28
     name rhand
     direction -1 -4.48902e-011 9.53292e-027   
     length 0.817967   
     axis -6.08098e-015 -90 -90   XYZ
    dof rx rz
    limits (-90.0 90.0)
           (-45.0 45.0)
  end
  begin
     id 29
     name rfingers
     direction -1 -4.49012e-011 1.90561e-026   
     length 0.659466   
     axis -1.21619e-014 -90 -90   XYZ
    dof rx
    limits (0.0 90.0)
  end
  begin
     id 30
     name rthumb
     direction -0.707107 -6.34944e-011 0.707107   
     length 0.946865   
     axis -90 -45 9.86923e-015   XYZ
    dof rx rz
    limits (-45.0 45.0)
           (-45.0 45.0)
  end
:hierarchy
  begin
    root lhipjoint rhipjoint lowerback
    lhipjoint lfemur
    lfemur ltibia
    ltibia lfoot
    lfoot ltoes
    rhipjoint rfemur
    rfemur rtibia
    rtibia rfoot
    rfoot rtoes
    lowerback upperback
    upperback thorax
    thorax lowerneck lclavicle rclavicle
    lowerneck upperneck
    upperneck head
    lclavicle lhumerus
    lhumerus lradius
    lradius lwrist
    lwrist lhand lthumb
    lhand lfingers
    rclavicle rhumerus
    rhumerus rradius
    rradius rwrist
    rwrist rhand rthumb
    rhand rfingers
  end

#!OML:ASF F:\twosubjects\two\wednesday\Session 1\Justin1.ASF
:FULLY-SPECIFIED
:DEGREES
523
root 8.19649 17.4787 -15.4486 -0.467582 14.1833 -3.76625
lowerback 10.5084 -4.34162 -4.03881
upperback 0.191686 -5.88276 7.27465
thorax -4.49105 -2.77747 10.9103
lowerneck -22.6257 -2.66853 -10.7275
upperneck 14.1458 -1.1074 4.55413
head 8.17107 -0.643748 3.12483
rclavicle -4.13472e-014 3.65764e-014
rhumerus -36.376 -6.60924 -63.929
rradius 118.171
rwrist -14.8165
rhand -24.3051 53.8429
rfingers 7.12502
rthumb 2.18268 23.8743
lclavicle -4.13472e-014 3.65764e-014
lhumerus -9.62685 4.1225 74.6968
lradius 86.5002
lwrist 1.75133
lhand -14.8315 20.0264
lfingers 7.12502
lthumb 11.3273 49.7005
rfemur -8.11717 -9.1915 22.5931
rtibia 24.0905
rfoot -14.1767 -15.4818
rtoes 2.12354
lfemur -16.1601 -2.99569 -7.92245
ltibia 26.9914
lfoot -11.8536 -10.0878
ltoes -12.2386
524
root 8.16486 17.4806 -15.4328 -0.444415 14.8661 -4.21494
lowerback 10.4631 -4.61682 -4.13489
upperback 0.00208934 -6.24365 7.60498
thorax -4.54259 -2.94702 11.3872
lowerneck -23.558 -2.68966 -10.5964
upperneck 15.0148 -1.01845 4.27955
head 8.61468 -0.63744 3.03404
rclavicle 9.95911e-014 -6.04305e-014
rhumerus -37.6255 -6.426 -64.8025
rradius 118.654
rwrist -14.4006
rhand -25.2745 54.3445
rfingers 7.12502
rthumb 1.24646 24.3684
lclavicle 9.95911e-014 -6.04305e-014
lhumerus -9.19149 4.06416 74.3794
lradius 86.1439
lwrist 1.87116
lhand -15.0042 20.6291
lfingers 7.12502
lthumb 11.1607 50.3123
rfemur -8.11276 -9.57667 23.2053
rtibia 23.8908
rfoot -14.0708 -15.8153
rtoes 1.50469
lfemur -16.4212 -3.50103 -7.31374
ltibia 26.8474
lfoot -11.8629 -10.4228
ltoes -11.971
525
root 8.13596 17.476 -15.4189 -0.296286 15.4188 -4.48103
lowerback 10.2417 -4.86206 -4.49869
upperback -0.101173 -6.60053 7.95936
thorax -4.36531 -3.12614 12.0193
lowerneck -24.2627 -2.63912 -10.4409
upperneck 15.3267 -0.85667 3.97739
head 8.82567 -0.588714 2.93187
rclavicle 5.32743e-014 -3.33958e-014
rhumerus -38.4926 -6.28255 -65.5887
rradius 119.043
rwrist -13.5655
rhand -25.4376 54.7519
rfingers 7.12502
rthumb 1.08893 24.775
lclavicle 5.32743e-014 -3.33958e-014
lhumerus -8.67777 4.0252 74.0369
lradius 85.8967
lwrist 1.75966
lhand -15.1554 21.1276
lfingers 7.12502
lthumb 11.0149 50.8186
rfemur -8.27053 -9.79669 23.6294
rtibia 23.8235
rfoot -14.1341 -16.1334
rtoes 2.36237
lfemur -16.719 -3.93057 -6.89955
ltibia 26.6455
lfoot -11.6487 -10.5887
ltoes -11.9939
526
root 8.10736 17.4767 -15.4024 -0.0144477 15.8357 -4.22625
lowerback 9.99607 -5.06831 -5.3919
upperback -0.251788 -6.97864 8.12973
thorax -4.17091 -3.30793 12.7568
lowerneck -24.1472 -2.32005 -10.4503
upperneck 14.9388 -0.465931 4.13967
head 8.64141 -0.378225 3.03996
rclavicle -5.96354e-016 -6.04305e-014
rhumerus -39.2282 -6.13976 -66.4086
rradius 119.313
rwrist -12.8309
rhand -21.6473 50.9794
rfingers 7.12502
rthumb 4.74932 21.0527
lclavicle -5.96354e-016 -6.04305e-014
lhumerus -8.31792 3.94884 73.5765
lradius 85.7939
lwrist 1.50835
lhand -15.45 21.589
lfingers 7.12502
lthumb 10.7307 51.295
rfemur -8.45837 -9.99355 23.5057
rtibia 23.8272
rfoot -14.2551 -16.2649
rtoes 2.92188
lfemur -16.9639 -4.57 -7.04085
ltibia 26.4781
lfoot -11.3978 -10.2815
ltoes -11.2301
527
root 8.08293 17.4812 -15.3909 0.256651 16.0622 -3.87882
lowerback 9.86956 -5.19046 -6.1288
upperback -0.455171 -7.22974 8.13148
thorax -4.16302 -3.41445 13.2181
lowerneck -24.2394 -2.14374 -10.4167
upperneck 15.0136 -0.26296 4.31186
head 8.66599 -0.262593 3.12502
rclavicle -4.6118e-014 7.95139e-015
rhumerus -40.0706 -6.08619 -67.3065
rradius 119.515
rwrist -12.0697
rhand -19.7044 49.1894
rfingers 7.12502
rthumb 6.62519 19.313
lclavicle -4.6118e-014 7.95139e-015
lhumerus -7.96463 3.6604 73.0898
lradius 85.7696
lwrist 1.12644
lhand -16.1322 22.0769
lfingers 7.12502
lthumb 10.0726 51.8158
rfemur -8.62442 -10.1678 23.2633
rtibia 23.8051
rfoot -14.331 -16.2299
rtoes 2.69047
lfemur -17.1848 -5.02774 -7.29579
ltibia 26.4115
lfoot -11.4634 -10.0473
ltoes -10.7893
528
root 8.06894 17.4781 -15.383 0.149095 16.1283 -4.16946
lowerback 9.97993 -5.23909 -6.04933
upperback -0.560519 -7.28014 8.26115
thorax -4.31684 -3.42621 13.3512
lowerneck -24.9003 -2.23842 -10.4905
upperneck 15.6392 -0.31831 4.43956
head 8.99801 -0.289721 3.18765
rclavicle 7.79236e-014 -3.33958e-014
rhumerus -40.836 -6.00539 -67.9959
rradius 119.575
rwrist -10.7257
rhand -20.7817 49.4965
rfingers 7.12502
rthumb 5.58509 19.5901
lclavicle 7.79236e-014 -3.33958e-014
lhumerus -7.61115 3.44037 72.8851
lradius 85.7912
lwrist 0.237174
lhand -16.5688 22.4845
lfingers 7.12502
lthumb 9.65136 52.2434
rfemur -8.54361 -10.3419 23.6028
rtibia 23.7317
rfoot -14.3054 -16.1191
rtoes 2.05669
lfemur -17.2357 -5.07194 -6.94469
ltibia 26.4952
lfoot -11.705 -10.0738
ltoes -12.674
529
root 8.05911 17.4715 -15.374 -0.102393 15.9048 -4.81449
lowerback 10.0723 -5.24914 -5.56038
upperback -0.575956 -7.22514 8.43531
thorax -4.43686 -3.39908 13.2726
lowerneck -25.0743 -2.18598 -10.434
upperneck 15.6662 -0.263679 4.51869
head 9.03155 -0.250744 3.21601
rclavicle 6.71892e-014 -2.22639e-014
rhumerus -41.3691 -5.90764 -68.6662
rradius 119.633
rwrist -9.00188
rhand -25.4697 55.3691
rfingers 7.12502
rthumb 1.05788 25.392
lclavicle 6.71892e-014 -2.22639e-014
lhumerus -7.4055 3.30787 72.5835
lradius 85.9919
lwrist -0.925525
lhand -17.1053 22.8917
lfingers 7.12502
lthumb 9.13376 52.6739
rfemur -8.41183 -10.4024 24.3021
rtibia 23.645
rfoot -14.1398 -15.974
rtoes 1.44033
lfemur -17.1832 -4.96818 -6.19518
ltibia 26.7551
lfoot -12.0963 -10.0056
ltoes -13.9119
530
root 8.04878 17.4608 -15.3733 -0.162666 15.5529 -5.35313
lowerback 10.0835 -5.26004 -5.15804
upperback -0.651232 -7.18079 8.56917
thorax -4.5673 -3.37329 13.1939
lowerneck -24.6979 -2.09775 -10.1519
upperneck 15.2159 -0.226955 4.25112
head 8.80835 -0.238425 3.07214
rclavicle -8.32908e-014 3.18055e-015
rhumerus -41.6692 -5.58636 -69.4375
rradius 119.686
rwrist -7.48012
rhand -23.5311 53.0348
rfingers 7.12502
rthumb 2.93025 23.0752
lclavicle -8.32908e-014 3.18055e-015
lhumerus -7.44231 3.19711 72.0733
lradius 86.4528
lwrist -2.24599
lhand -17.4817 23.1676
lfingers 7.12502
lthumb 8.77053 52.9654
rfemur -8.48297 -10.3209 24.951
rtibia 23.539
rfoot -14.0255 -15.8243
rtoes 1.69761
lfemur -17.3309 -4.85589 -5.51639
ltibia 27.1126
lfoot -12.472 -9.80046
ltoes -13.3715
531
root 8.0448 17.4485 -15.3793 -0.244478 15.2501 -5.63763
lowerback 10.1646 -5.22132 -5.00037
upperback -0.651997 -7.10325 8.69797
thorax -4.63584 -3.33246 13.2554
lowerneck -24.9324 -2.19634 -9.99855
upperneck 15.2582 -0.304357 3.85548
head 8.8681 -0.310517 2.89908
rclavicle -1.8487e-014 3.33958e-014
rhumerus -41.5291 -5.04927 -70.0424
rradius 119.46
rwrist -6.21384
rhand -21.5148 52.5552
rfingers 7.12502
rthumb 4.87732 22.6314
lclavicle -1.8487e-014 3.33958e-014
lhumerus -7.47964 3.14424 71.7895
lradius 87.1607
lwrist -3.81193
lhand -17.2263 23.6807
lfingers 7.12502
lthumb 9.01695 53.468
rfemur -8.50303 -10.2041 25.2932
rtibia 23.5125
rfoot -14.0225 -15.6666
rtoes 2.1151
lfemur -17.4192 -4.83641 -5.16736
ltibia 27.4063
lfoot -12.5761 -9.49187
ltoes -13.47
532
root 8.04463 17.4467 -15.3793 -0.341726 14.7427 -5.7282
lowerback 10.0805 -5.11747 -5.05436
upperback -0.516016 -6.972 8.76531
thorax -4.46124 -3.28211 13.3298
lowerneck -25.5699 -2.09644 -9.98538
upperneck 15.4103 -0.121724 3.95146
head 9.01268 -0.212931 2.96263
rclavicle -1.98785e-016 -3.02153e-014
rhumerus -41.0443 -4.43671 -70.5335
rradius 119.216
rwrist -4.89923
rhand -20.9562 49.0973
rfingers 7.12502
rthumb 5.41665 19.1866
lclavicle -1.98785e-016 -3.02153e-014
lhumerus -7.36331 3.13013 71.5966
lradius 87.975
lwrist -5.64531
lhand -17.2036 24.3587
lfingers 7.12502
lthumb 9.0389 54.1451
rfemur -8.46007 -9.97061 25.4008
rtibia 23.561
rfoot -13.9858 -15.4312
rtoes 1.96586
lfemur -17.2755 -4.76625 -5.03456
ltibia 27.5632
lfoot -12.6232 -9.10137
ltoes -13.8248
